<mxfile host="app.diagrams.net" modified="2022-03-04T12:39:27.412Z" agent="5.0 (Windows NT 10.0; Win64; x64) AppleWebKit/537.36 (KHTML, like Gecko) Chrome/98.0.4758.102 Safari/537.36 Edg/98.0.1108.62" etag="ADYk13bIj74AC51J3DS_" version="16.6.5" type="github">
  <diagram id="fsAFGS4oz3nlPsBt68Uk" name="Page-1">
    <mxGraphModel dx="1422" dy="754" grid="1" gridSize="10" guides="1" tooltips="1" connect="1" arrows="1" fold="1" page="1" pageScale="1" pageWidth="827" pageHeight="1169" math="0" shadow="0">
      <root>
        <mxCell id="0" />
        <mxCell id="1" parent="0" />
        <mxCell id="GRFbI8-_6WbSpLQHYe25-1" value="START" style="ellipse;whiteSpace=wrap;html=1;fontStyle=1;fillColor=#FFB366;" parent="1" vertex="1">
          <mxGeometry x="11" y="10" width="60" height="40" as="geometry" />
        </mxCell>
        <mxCell id="GRFbI8-_6WbSpLQHYe25-2" value="" style="endArrow=classic;html=1;rounded=0;" parent="1" edge="1">
          <mxGeometry width="50" height="50" relative="1" as="geometry">
            <mxPoint x="40" y="50" as="sourcePoint" />
            <mxPoint x="41" y="75" as="targetPoint" />
          </mxGeometry>
        </mxCell>
        <mxCell id="GRFbI8-_6WbSpLQHYe25-121" style="edgeStyle=orthogonalEdgeStyle;rounded=0;orthogonalLoop=1;jettySize=auto;html=1;exitX=0.25;exitY=1;exitDx=0;exitDy=0;entryX=0.667;entryY=0.013;entryDx=0;entryDy=0;entryPerimeter=0;strokeWidth=2;" parent="1" source="GRFbI8-_6WbSpLQHYe25-16" target="GRFbI8-_6WbSpLQHYe25-26" edge="1">
          <mxGeometry relative="1" as="geometry" />
        </mxCell>
        <mxCell id="GRFbI8-_6WbSpLQHYe25-16" value="&lt;b&gt;CATALOG TASK&lt;br&gt;&lt;/b&gt;&lt;span&gt;Reserve a laptop for &amp;lt;user&amp;gt;&lt;/span&gt;" style="rounded=0;whiteSpace=wrap;html=1;" parent="1" vertex="1">
          <mxGeometry x="150" y="77.5" width="160" height="80" as="geometry" />
        </mxCell>
        <mxCell id="GRFbI8-_6WbSpLQHYe25-118" value="No" style="edgeStyle=orthogonalEdgeStyle;rounded=0;orthogonalLoop=1;jettySize=auto;html=1;exitX=0.5;exitY=1;exitDx=0;exitDy=0;entryX=0.25;entryY=0;entryDx=0;entryDy=0;strokeWidth=2;" parent="1" source="GRFbI8-_6WbSpLQHYe25-25" target="GRFbI8-_6WbSpLQHYe25-26" edge="1">
          <mxGeometry relative="1" as="geometry" />
        </mxCell>
        <mxCell id="GRFbI8-_6WbSpLQHYe25-119" value="Yes" style="edgeStyle=orthogonalEdgeStyle;rounded=0;orthogonalLoop=1;jettySize=auto;html=1;exitX=1;exitY=0.5;exitDx=0;exitDy=0;strokeWidth=2;" parent="1" source="GRFbI8-_6WbSpLQHYe25-25" target="GRFbI8-_6WbSpLQHYe25-16" edge="1">
          <mxGeometry relative="1" as="geometry" />
        </mxCell>
        <mxCell id="GRFbI8-_6WbSpLQHYe25-25" value="&lt;span&gt;Laptop is required?&lt;/span&gt;" style="rounded=0;whiteSpace=wrap;html=1;fillColor=#fff2cc;strokeColor=#d6b656;" parent="1" vertex="1">
          <mxGeometry x="2" y="75" width="89" height="85" as="geometry" />
        </mxCell>
        <mxCell id="GRFbI8-_6WbSpLQHYe25-113" value="Yes" style="edgeStyle=orthogonalEdgeStyle;rounded=0;orthogonalLoop=1;jettySize=auto;html=1;exitX=1;exitY=0.5;exitDx=0;exitDy=0;entryX=0;entryY=0;entryDx=0;entryDy=0;strokeWidth=2;" parent="1" source="GRFbI8-_6WbSpLQHYe25-26" edge="1">
          <mxGeometry relative="1" as="geometry">
            <Array as="points">
              <mxPoint x="230" y="255" />
              <mxPoint x="230" y="255" />
            </Array>
            <mxPoint x="242" y="255" as="targetPoint" />
          </mxGeometry>
        </mxCell>
        <mxCell id="GRFbI8-_6WbSpLQHYe25-115" value="No" style="edgeStyle=orthogonalEdgeStyle;rounded=0;orthogonalLoop=1;jettySize=auto;html=1;exitX=0.25;exitY=1;exitDx=0;exitDy=0;entryX=0.25;entryY=0;entryDx=0;entryDy=0;strokeWidth=2;" parent="1" source="GRFbI8-_6WbSpLQHYe25-26" target="GRFbI8-_6WbSpLQHYe25-49" edge="1">
          <mxGeometry relative="1" as="geometry" />
        </mxCell>
        <mxCell id="GRFbI8-_6WbSpLQHYe25-26" value="&lt;span&gt;Employee type NOT &quot;Cronos Medeworker - Lange Termijn&quot; and NOT &quot;Cronos Medeworker - Korte Termijn&quot;&lt;/span&gt;" style="rounded=0;whiteSpace=wrap;html=1;fillColor=#fff2cc;strokeColor=#d6b656;" parent="1" vertex="1">
          <mxGeometry x="2" y="215" width="180" height="80" as="geometry" />
        </mxCell>
        <mxCell id="t3DnAIWewciy8LTK_AGN-57" value="Yes" style="edgeStyle=orthogonalEdgeStyle;rounded=0;orthogonalLoop=1;jettySize=auto;html=1;exitX=1;exitY=0.25;exitDx=0;exitDy=0;entryX=0;entryY=0.5;entryDx=0;entryDy=0;strokeWidth=2;" parent="1" source="GRFbI8-_6WbSpLQHYe25-28" target="GRFbI8-_6WbSpLQHYe25-32" edge="1">
          <mxGeometry x="-0.765" relative="1" as="geometry">
            <mxPoint as="offset" />
          </mxGeometry>
        </mxCell>
        <mxCell id="t3DnAIWewciy8LTK_AGN-58" value="No" style="edgeStyle=orthogonalEdgeStyle;rounded=0;orthogonalLoop=1;jettySize=auto;html=1;exitX=1;exitY=0.75;exitDx=0;exitDy=0;entryX=0;entryY=0.5;entryDx=0;entryDy=0;strokeWidth=2;" parent="1" source="GRFbI8-_6WbSpLQHYe25-28" target="GRFbI8-_6WbSpLQHYe25-41" edge="1">
          <mxGeometry x="-0.6868" relative="1" as="geometry">
            <Array as="points">
              <mxPoint x="490" y="269" />
              <mxPoint x="490" y="195" />
            </Array>
            <mxPoint as="offset" />
          </mxGeometry>
        </mxCell>
        <mxCell id="GRFbI8-_6WbSpLQHYe25-28" value="&lt;span&gt;Employee type IS &quot;Externe Medeworker - Contract Plus&quot;&lt;br&gt;or&lt;br&gt;&lt;/span&gt;Employee type IS &quot;Freelancer&quot;&lt;br&gt;or &quot;Stagiar&quot;&lt;span&gt;&lt;br&gt;&lt;/span&gt;" style="rounded=0;whiteSpace=wrap;html=1;fillColor=#fff2cc;strokeColor=#d6b656;" parent="1" vertex="1">
          <mxGeometry x="242" y="205" width="180" height="85" as="geometry" />
        </mxCell>
        <mxCell id="GRFbI8-_6WbSpLQHYe25-105" style="edgeStyle=orthogonalEdgeStyle;rounded=0;orthogonalLoop=1;jettySize=auto;html=1;exitX=0.5;exitY=1;exitDx=0;exitDy=0;entryX=0.5;entryY=0;entryDx=0;entryDy=0;strokeWidth=2;" parent="1" source="GRFbI8-_6WbSpLQHYe25-32" target="GRFbI8-_6WbSpLQHYe25-41" edge="1">
          <mxGeometry relative="1" as="geometry" />
        </mxCell>
        <mxCell id="GRFbI8-_6WbSpLQHYe25-32" value="&lt;b&gt;CATALOG TASK&lt;br&gt;&lt;/b&gt;Create account in Cronos Central for&amp;nbsp;&amp;lt;user&amp;gt;&lt;br&gt;&lt;div&gt;&lt;i&gt;&lt;sub&gt;Different subject&amp;nbsp;&lt;/sub&gt;&lt;/i&gt;&lt;i&gt;&lt;sub&gt;according to&lt;/sub&gt;&lt;sup&gt; the&amp;nbsp;&lt;/sup&gt;&lt;/i&gt;&lt;i&gt;&lt;sup&gt;employee type&lt;/sup&gt;&lt;/i&gt;&lt;/div&gt;" style="rounded=0;whiteSpace=wrap;html=1;" parent="1" vertex="1">
          <mxGeometry x="527" y="53" width="160" height="80" as="geometry" />
        </mxCell>
        <mxCell id="GRFbI8-_6WbSpLQHYe25-104" style="edgeStyle=orthogonalEdgeStyle;rounded=0;orthogonalLoop=1;jettySize=auto;html=1;exitX=0.5;exitY=1;exitDx=0;exitDy=0;entryX=0.5;entryY=0;entryDx=0;entryDy=0;strokeWidth=2;" parent="1" source="GRFbI8-_6WbSpLQHYe25-41" target="GRFbI8-_6WbSpLQHYe25-48" edge="1">
          <mxGeometry relative="1" as="geometry" />
        </mxCell>
        <mxCell id="GRFbI8-_6WbSpLQHYe25-41" value="&lt;b&gt;CATALOG TASK&lt;br&gt;&lt;/b&gt;&lt;span&gt;Specify Cronos Account of&lt;/span&gt;&amp;nbsp;&amp;lt;user&amp;gt;" style="rounded=0;whiteSpace=wrap;html=1;" parent="1" vertex="1">
          <mxGeometry x="527" y="155" width="160" height="80" as="geometry" />
        </mxCell>
        <mxCell id="GRFbI8-_6WbSpLQHYe25-114" style="edgeStyle=orthogonalEdgeStyle;rounded=0;orthogonalLoop=1;jettySize=auto;html=1;exitX=0;exitY=0.75;exitDx=0;exitDy=0;strokeWidth=2;entryX=0.661;entryY=0.02;entryDx=0;entryDy=0;entryPerimeter=0;" parent="1" source="GRFbI8-_6WbSpLQHYe25-48" target="GRFbI8-_6WbSpLQHYe25-49" edge="1">
          <mxGeometry relative="1" as="geometry">
            <mxPoint x="120" y="350" as="targetPoint" />
          </mxGeometry>
        </mxCell>
        <mxCell id="GRFbI8-_6WbSpLQHYe25-48" value="&lt;b&gt;CATALOG TASK&lt;br&gt;&lt;/b&gt;&lt;span&gt;Please specify the Arxus Email that got created for&lt;/span&gt;&amp;nbsp;&amp;lt;user&amp;gt; by Cronos SD" style="rounded=0;whiteSpace=wrap;html=1;" parent="1" vertex="1">
          <mxGeometry x="527" y="256" width="160" height="80" as="geometry" />
        </mxCell>
        <mxCell id="GRFbI8-_6WbSpLQHYe25-98" value="No" style="edgeStyle=orthogonalEdgeStyle;rounded=0;orthogonalLoop=1;jettySize=auto;html=1;exitX=0.25;exitY=1;exitDx=0;exitDy=0;entryX=0.25;entryY=0;entryDx=0;entryDy=0;strokeWidth=2;" parent="1" source="GRFbI8-_6WbSpLQHYe25-49" target="GRFbI8-_6WbSpLQHYe25-66" edge="1">
          <mxGeometry relative="1" as="geometry" />
        </mxCell>
        <mxCell id="GRFbI8-_6WbSpLQHYe25-102" value="Yes" style="edgeStyle=orthogonalEdgeStyle;rounded=0;orthogonalLoop=1;jettySize=auto;html=1;exitX=1;exitY=0.25;exitDx=0;exitDy=0;entryX=0.013;entryY=0.65;entryDx=0;entryDy=0;entryPerimeter=0;strokeWidth=2;" parent="1" source="GRFbI8-_6WbSpLQHYe25-49" target="GRFbI8-_6WbSpLQHYe25-53" edge="1">
          <mxGeometry relative="1" as="geometry" />
        </mxCell>
        <mxCell id="GRFbI8-_6WbSpLQHYe25-49" value="&lt;span&gt;Employee type NOT &quot;Cronos Medeworker - Korte Termijn&quot; and NOT &quot;Externe Medeworker - Contractor Plus&quot;&amp;nbsp;&lt;/span&gt;and NOT &quot;internal Altogee&quot; and NOT &quot;internal Cloudfuel&quot;" style="rounded=0;whiteSpace=wrap;html=1;fillColor=#fff2cc;strokeColor=#d6b656;" parent="1" vertex="1">
          <mxGeometry x="1" y="355" width="180" height="100" as="geometry" />
        </mxCell>
        <mxCell id="GRFbI8-_6WbSpLQHYe25-101" style="edgeStyle=orthogonalEdgeStyle;rounded=0;orthogonalLoop=1;jettySize=auto;html=1;exitX=0.5;exitY=1;exitDx=0;exitDy=0;entryX=0.5;entryY=0;entryDx=0;entryDy=0;strokeWidth=2;" parent="1" source="GRFbI8-_6WbSpLQHYe25-53" target="GRFbI8-_6WbSpLQHYe25-54" edge="1">
          <mxGeometry relative="1" as="geometry" />
        </mxCell>
        <mxCell id="GRFbI8-_6WbSpLQHYe25-53" value="&lt;b&gt;CATALOG TASK&lt;br&gt;&lt;/b&gt;&lt;span&gt;Add&lt;/span&gt;&amp;nbsp;&amp;lt;user&amp;gt; to Crossware" style="rounded=0;whiteSpace=wrap;html=1;" parent="1" vertex="1">
          <mxGeometry x="262" y="328" width="160" height="80" as="geometry" />
        </mxCell>
        <mxCell id="GRFbI8-_6WbSpLQHYe25-68" style="edgeStyle=orthogonalEdgeStyle;rounded=0;orthogonalLoop=1;jettySize=auto;html=1;exitX=0;exitY=0.5;exitDx=0;exitDy=0;entryX=0.661;entryY=-0.012;entryDx=0;entryDy=0;entryPerimeter=0;strokeWidth=2;" parent="1" source="GRFbI8-_6WbSpLQHYe25-54" target="GRFbI8-_6WbSpLQHYe25-66" edge="1">
          <mxGeometry relative="1" as="geometry" />
        </mxCell>
        <mxCell id="GRFbI8-_6WbSpLQHYe25-54" value="&lt;b&gt;CATALOG TASK&lt;br&gt;&lt;/b&gt;&lt;span&gt;Grant&lt;/span&gt;&amp;nbsp;&amp;lt;user&amp;gt;&amp;nbsp;&lt;span&gt;the appropriate permissions via the Arxus Portal&lt;/span&gt;" style="rounded=0;whiteSpace=wrap;html=1;" parent="1" vertex="1">
          <mxGeometry x="242" y="430" width="160" height="80" as="geometry" />
        </mxCell>
        <mxCell id="GRFbI8-_6WbSpLQHYe25-97" value="No" style="edgeStyle=orthogonalEdgeStyle;rounded=0;orthogonalLoop=1;jettySize=auto;html=1;exitX=0.25;exitY=1;exitDx=0;exitDy=0;entryX=0.25;entryY=0;entryDx=0;entryDy=0;strokeWidth=2;" parent="1" source="GRFbI8-_6WbSpLQHYe25-66" target="GRFbI8-_6WbSpLQHYe25-80" edge="1">
          <mxGeometry relative="1" as="geometry" />
        </mxCell>
        <mxCell id="GRFbI8-_6WbSpLQHYe25-99" value="Yes" style="edgeStyle=orthogonalEdgeStyle;rounded=0;orthogonalLoop=1;jettySize=auto;html=1;exitX=1;exitY=0.5;exitDx=0;exitDy=0;strokeWidth=2;" parent="1" source="GRFbI8-_6WbSpLQHYe25-66" target="GRFbI8-_6WbSpLQHYe25-70" edge="1">
          <mxGeometry relative="1" as="geometry" />
        </mxCell>
        <mxCell id="GRFbI8-_6WbSpLQHYe25-66" value="&lt;span&gt;Employee type IS &quot;Internal&quot; or IS &quot;Freelancer&quot; or IS &quot;&lt;/span&gt;Cronos Medeworker - Lange Termijn&lt;span&gt;&quot;&lt;/span&gt;" style="rounded=0;whiteSpace=wrap;html=1;fillColor=#fff2cc;strokeColor=#d6b656;" parent="1" vertex="1">
          <mxGeometry x="2" y="515" width="180" height="80" as="geometry" />
        </mxCell>
        <mxCell id="GRFbI8-_6WbSpLQHYe25-95" value="No" style="edgeStyle=orthogonalEdgeStyle;rounded=0;orthogonalLoop=1;jettySize=auto;html=1;exitX=0.5;exitY=1;exitDx=0;exitDy=0;entryX=0.665;entryY=-0.025;entryDx=0;entryDy=0;entryPerimeter=0;strokeWidth=2;" parent="1" source="GRFbI8-_6WbSpLQHYe25-70" target="GRFbI8-_6WbSpLQHYe25-80" edge="1">
          <mxGeometry x="-0.7139" relative="1" as="geometry">
            <Array as="points">
              <mxPoint x="332" y="610" />
              <mxPoint x="120" y="610" />
            </Array>
            <mxPoint as="offset" />
          </mxGeometry>
        </mxCell>
        <mxCell id="GRFbI8-_6WbSpLQHYe25-100" value="Yes" style="edgeStyle=orthogonalEdgeStyle;rounded=0;orthogonalLoop=1;jettySize=auto;html=1;exitX=1;exitY=0.5;exitDx=0;exitDy=0;entryX=0;entryY=0.5;entryDx=0;entryDy=0;strokeWidth=2;" parent="1" source="GRFbI8-_6WbSpLQHYe25-70" target="GRFbI8-_6WbSpLQHYe25-76" edge="1">
          <mxGeometry relative="1" as="geometry" />
        </mxCell>
        <mxCell id="GRFbI8-_6WbSpLQHYe25-70" value="&lt;span&gt;Group IS &quot;Productivity Tribe&quot; or IS &quot;Cloud Custodian Tribe&quot; or IS &quot;Hybrid Tree&quot; or IS &quot;CX &amp;amp; Scale Tribe&quot; or IS &quot;Customer Ops &amp;amp; Success Tribe&quot;&lt;/span&gt;" style="rounded=0;whiteSpace=wrap;html=1;fillColor=#fff2cc;strokeColor=#d6b656;" parent="1" vertex="1">
          <mxGeometry x="242" y="518" width="180" height="75" as="geometry" />
        </mxCell>
        <mxCell id="GRFbI8-_6WbSpLQHYe25-96" style="edgeStyle=orthogonalEdgeStyle;rounded=0;orthogonalLoop=1;jettySize=auto;html=1;exitX=0.5;exitY=1;exitDx=0;exitDy=0;entryX=0.899;entryY=0.013;entryDx=0;entryDy=0;entryPerimeter=0;strokeWidth=2;" parent="1" source="GRFbI8-_6WbSpLQHYe25-76" target="GRFbI8-_6WbSpLQHYe25-80" edge="1">
          <mxGeometry relative="1" as="geometry" />
        </mxCell>
        <mxCell id="GRFbI8-_6WbSpLQHYe25-76" value="&lt;b&gt;CATALOG TASK&lt;br&gt;&lt;/b&gt;&lt;span&gt;Create the following&lt;br&gt;accounts for&amp;nbsp;&lt;/span&gt;&amp;lt;user&amp;gt;&lt;br&gt;&lt;i&gt;&lt;sup&gt;(&lt;span&gt;CloudServ and CloudV&lt;/span&gt;)&lt;/sup&gt;&lt;/i&gt;" style="rounded=0;whiteSpace=wrap;html=1;" parent="1" vertex="1">
          <mxGeometry x="480" y="515.5" width="160" height="80" as="geometry" />
        </mxCell>
        <mxCell id="t3DnAIWewciy8LTK_AGN-23" style="edgeStyle=orthogonalEdgeStyle;rounded=0;orthogonalLoop=1;jettySize=auto;html=1;exitX=1;exitY=0.75;exitDx=0;exitDy=0;entryX=0;entryY=0.25;entryDx=0;entryDy=0;strokeWidth=2;" parent="1" source="GRFbI8-_6WbSpLQHYe25-80" target="GRFbI8-_6WbSpLQHYe25-81" edge="1">
          <mxGeometry relative="1" as="geometry" />
        </mxCell>
        <mxCell id="GRFbI8-_6WbSpLQHYe25-80" value="&lt;b&gt;CATALOG TASK&lt;br&gt;&lt;/b&gt;Update staff list with &amp;lt;user&amp;gt;" style="rounded=0;whiteSpace=wrap;html=1;" parent="1" vertex="1">
          <mxGeometry x="2" y="655" width="179" height="55" as="geometry" />
        </mxCell>
        <mxCell id="GRFbI8-_6WbSpLQHYe25-94" value="Yes" style="edgeStyle=orthogonalEdgeStyle;rounded=0;orthogonalLoop=1;jettySize=auto;html=1;exitX=1;exitY=0.5;exitDx=0;exitDy=0;entryX=0;entryY=0.5;entryDx=0;entryDy=0;strokeWidth=2;" parent="1" source="GRFbI8-_6WbSpLQHYe25-81" target="GRFbI8-_6WbSpLQHYe25-84" edge="1">
          <mxGeometry relative="1" as="geometry" />
        </mxCell>
        <mxCell id="s9xyFnBMHQ_bjVRWuZO3-5" value="No" style="edgeStyle=orthogonalEdgeStyle;rounded=0;orthogonalLoop=1;jettySize=auto;html=1;exitX=0.5;exitY=1;exitDx=0;exitDy=0;entryX=0.25;entryY=0;entryDx=0;entryDy=0;strokeWidth=2;" parent="1" source="GRFbI8-_6WbSpLQHYe25-81" target="GRFbI8-_6WbSpLQHYe25-124" edge="1">
          <mxGeometry x="-0.6876" relative="1" as="geometry">
            <mxPoint as="offset" />
          </mxGeometry>
        </mxCell>
        <mxCell id="GRFbI8-_6WbSpLQHYe25-81" value="&lt;span&gt;Employee type NOT &quot;&lt;/span&gt;Externe Medeworker - Contractor Plus&quot;" style="rounded=0;whiteSpace=wrap;html=1;fillColor=#fff2cc;strokeColor=#d6b656;" parent="1" vertex="1">
          <mxGeometry x="218" y="655" width="180" height="80" as="geometry" />
        </mxCell>
        <mxCell id="GRFbI8-_6WbSpLQHYe25-93" value="Yes" style="edgeStyle=orthogonalEdgeStyle;rounded=0;orthogonalLoop=1;jettySize=auto;html=1;entryX=0;entryY=0.5;entryDx=0;entryDy=0;strokeWidth=2;" parent="1" source="GRFbI8-_6WbSpLQHYe25-84" target="GRFbI8-_6WbSpLQHYe25-85" edge="1">
          <mxGeometry relative="1" as="geometry" />
        </mxCell>
        <mxCell id="t3DnAIWewciy8LTK_AGN-56" value="No" style="edgeStyle=orthogonalEdgeStyle;rounded=0;orthogonalLoop=1;jettySize=auto;html=1;exitX=0.25;exitY=1;exitDx=0;exitDy=0;entryX=0.75;entryY=0;entryDx=0;entryDy=0;strokeWidth=2;" parent="1" source="GRFbI8-_6WbSpLQHYe25-84" target="GRFbI8-_6WbSpLQHYe25-88" edge="1">
          <mxGeometry relative="1" as="geometry" />
        </mxCell>
        <mxCell id="GRFbI8-_6WbSpLQHYe25-84" value="&lt;span&gt;Employee type IS &quot;Internal&quot; or IS &quot;Freelancer&quot; or IS &quot;&lt;/span&gt;Cronos Medeworker - Lange Termijn&lt;span&gt;&quot; or IS &quot;Stagiar&quot; or IS &quot;internal Altogee&quot; or IS &quot;internal Cloudfuel&quot;&lt;/span&gt;" style="rounded=0;whiteSpace=wrap;html=1;fillColor=#fff2cc;strokeColor=#d6b656;" parent="1" vertex="1">
          <mxGeometry x="451" y="640" width="149" height="110" as="geometry" />
        </mxCell>
        <mxCell id="GRFbI8-_6WbSpLQHYe25-131" style="edgeStyle=orthogonalEdgeStyle;rounded=0;orthogonalLoop=1;jettySize=auto;html=1;exitX=0.5;exitY=1;exitDx=0;exitDy=0;entryX=1;entryY=0.636;entryDx=0;entryDy=0;strokeWidth=2;entryPerimeter=0;" parent="1" source="GRFbI8-_6WbSpLQHYe25-85" target="GRFbI8-_6WbSpLQHYe25-124" edge="1">
          <mxGeometry relative="1" as="geometry" />
        </mxCell>
        <mxCell id="GRFbI8-_6WbSpLQHYe25-85" value="&lt;b&gt;CATALOG TASK&lt;br&gt;&lt;/b&gt;&lt;span&gt;Create Arxus.cloud account for&amp;nbsp;&lt;/span&gt;&amp;lt;user&amp;gt;" style="rounded=0;whiteSpace=wrap;html=1;" parent="1" vertex="1">
          <mxGeometry x="660" y="720" width="160" height="80" as="geometry" />
        </mxCell>
        <mxCell id="GRFbI8-_6WbSpLQHYe25-122" value="Yes" style="edgeStyle=orthogonalEdgeStyle;rounded=0;orthogonalLoop=1;jettySize=auto;html=1;exitX=1;exitY=0.5;exitDx=0;exitDy=0;entryX=0;entryY=0.5;entryDx=0;entryDy=0;strokeWidth=2;" parent="1" source="GRFbI8-_6WbSpLQHYe25-88" target="GRFbI8-_6WbSpLQHYe25-85" edge="1">
          <mxGeometry relative="1" as="geometry">
            <Array as="points">
              <mxPoint x="630" y="820" />
              <mxPoint x="630" y="760" />
            </Array>
          </mxGeometry>
        </mxCell>
        <mxCell id="GRFbI8-_6WbSpLQHYe25-128" value="No" style="edgeStyle=orthogonalEdgeStyle;rounded=0;orthogonalLoop=1;jettySize=auto;html=1;exitX=0;exitY=0.75;exitDx=0;exitDy=0;entryX=1.006;entryY=0.344;entryDx=0;entryDy=0;entryPerimeter=0;strokeWidth=2;" parent="1" edge="1">
          <mxGeometry x="-0.6951" relative="1" as="geometry">
            <mxPoint x="451" y="826" as="sourcePoint" />
            <mxPoint x="182.06799999999998" y="826.056" as="targetPoint" />
            <Array as="points">
              <mxPoint x="250" y="826" />
              <mxPoint x="250" y="826" />
            </Array>
            <mxPoint as="offset" />
          </mxGeometry>
        </mxCell>
        <mxCell id="GRFbI8-_6WbSpLQHYe25-88" value="&lt;span&gt;Employee type IS &quot;&lt;/span&gt;Cronos Medeworker - Korte Termijn&lt;span&gt;&quot; and Laptop Required&lt;/span&gt;" style="rounded=0;whiteSpace=wrap;html=1;fillColor=#fff2cc;strokeColor=#d6b656;" parent="1" vertex="1">
          <mxGeometry x="449" y="790" width="149" height="60" as="geometry" />
        </mxCell>
        <mxCell id="s9xyFnBMHQ_bjVRWuZO3-4" value="Yes" style="edgeStyle=orthogonalEdgeStyle;rounded=0;orthogonalLoop=1;jettySize=auto;html=1;exitX=0.75;exitY=1;exitDx=0;exitDy=0;entryX=0;entryY=0.5;entryDx=0;entryDy=0;strokeWidth=2;" parent="1" source="GRFbI8-_6WbSpLQHYe25-124" target="GRFbI8-_6WbSpLQHYe25-132" edge="1">
          <mxGeometry relative="1" as="geometry">
            <Array as="points">
              <mxPoint x="137" y="913" />
            </Array>
          </mxGeometry>
        </mxCell>
        <mxCell id="s9xyFnBMHQ_bjVRWuZO3-6" value="No" style="edgeStyle=orthogonalEdgeStyle;rounded=0;orthogonalLoop=1;jettySize=auto;html=1;exitX=0.25;exitY=1;exitDx=0;exitDy=0;entryX=0.25;entryY=0;entryDx=0;entryDy=0;strokeWidth=2;" parent="1" source="GRFbI8-_6WbSpLQHYe25-124" target="s9xyFnBMHQ_bjVRWuZO3-2" edge="1">
          <mxGeometry x="-0.2523" y="1" relative="1" as="geometry">
            <mxPoint as="offset" />
          </mxGeometry>
        </mxCell>
        <mxCell id="GRFbI8-_6WbSpLQHYe25-124" value="&lt;span&gt;Employee type IS &quot;Internal&quot; or IS &quot;Freelancer&quot; or IS &quot;&lt;/span&gt;Cronos Medeworker - Lange Termijn&lt;span&gt;&quot; or IS &quot;Stagiar&quot; or IS &quot;internal Altogee&quot; or IS &quot;internal Cloudfuel&quot;&lt;/span&gt;" style="rounded=0;whiteSpace=wrap;html=1;fillColor=#fff2cc;strokeColor=#d6b656;" parent="1" vertex="1">
          <mxGeometry x="3" y="801" width="178" height="99" as="geometry" />
        </mxCell>
        <mxCell id="s9xyFnBMHQ_bjVRWuZO3-3" style="edgeStyle=orthogonalEdgeStyle;rounded=0;orthogonalLoop=1;jettySize=auto;html=1;exitX=0;exitY=0.75;exitDx=0;exitDy=0;entryX=0.644;entryY=0.013;entryDx=0;entryDy=0;entryPerimeter=0;strokeWidth=2;" parent="1" source="GRFbI8-_6WbSpLQHYe25-132" target="s9xyFnBMHQ_bjVRWuZO3-2" edge="1">
          <mxGeometry relative="1" as="geometry" />
        </mxCell>
        <mxCell id="GRFbI8-_6WbSpLQHYe25-132" value="Send email to Cronos SD&lt;br&gt;(Subject:&amp;nbsp;&lt;span&gt;&lt;i&gt;Nieuwe Arxus medewerker &amp;lt;user&amp;gt;&lt;/i&gt;&lt;/span&gt;)" style="rounded=0;whiteSpace=wrap;html=1;" parent="1" vertex="1">
          <mxGeometry x="227.5" y="873" width="149" height="80" as="geometry" />
        </mxCell>
        <mxCell id="s9xyFnBMHQ_bjVRWuZO3-11" value="Yes" style="edgeStyle=orthogonalEdgeStyle;rounded=0;orthogonalLoop=1;jettySize=auto;html=1;exitX=1;exitY=0.5;exitDx=0;exitDy=0;entryX=0.25;entryY=1;entryDx=0;entryDy=0;strokeWidth=2;" parent="1" source="s9xyFnBMHQ_bjVRWuZO3-2" target="s9xyFnBMHQ_bjVRWuZO3-8" edge="1">
          <mxGeometry x="-0.6554" relative="1" as="geometry">
            <mxPoint as="offset" />
          </mxGeometry>
        </mxCell>
        <mxCell id="s9xyFnBMHQ_bjVRWuZO3-14" value="No" style="edgeStyle=orthogonalEdgeStyle;rounded=0;orthogonalLoop=1;jettySize=auto;html=1;exitX=0.25;exitY=1;exitDx=0;exitDy=0;entryX=0.25;entryY=0;entryDx=0;entryDy=0;strokeWidth=2;" parent="1" source="s9xyFnBMHQ_bjVRWuZO3-2" target="s9xyFnBMHQ_bjVRWuZO3-12" edge="1">
          <mxGeometry x="-0.2273" y="2" relative="1" as="geometry">
            <mxPoint as="offset" />
          </mxGeometry>
        </mxCell>
        <mxCell id="s9xyFnBMHQ_bjVRWuZO3-2" value="&lt;span&gt;Employee type IS &quot;Cronos Medeworker - Lange Termijn&quot;&lt;/span&gt;" style="rounded=0;whiteSpace=wrap;html=1;fillColor=#fff2cc;strokeColor=#d6b656;" parent="1" vertex="1">
          <mxGeometry x="3" y="953" width="180" height="57" as="geometry" />
        </mxCell>
        <mxCell id="s9xyFnBMHQ_bjVRWuZO3-15" style="edgeStyle=orthogonalEdgeStyle;rounded=0;orthogonalLoop=1;jettySize=auto;html=1;exitX=0.75;exitY=1;exitDx=0;exitDy=0;entryX=0.644;entryY=0.013;entryDx=0;entryDy=0;entryPerimeter=0;strokeWidth=2;" parent="1" source="s9xyFnBMHQ_bjVRWuZO3-8" target="s9xyFnBMHQ_bjVRWuZO3-12" edge="1">
          <mxGeometry relative="1" as="geometry">
            <Array as="points">
              <mxPoint x="502" y="1010" />
              <mxPoint x="200" y="1010" />
              <mxPoint x="200" y="1050" />
              <mxPoint x="119" y="1050" />
            </Array>
          </mxGeometry>
        </mxCell>
        <mxCell id="s9xyFnBMHQ_bjVRWuZO3-8" value="Send email to Cronos SD&lt;br&gt;(Subject:&amp;nbsp;&lt;span&gt;&lt;i&gt;Nieuwe Arxus medewerker &amp;lt;user&amp;gt;&lt;/i&gt;&lt;/span&gt;)" style="rounded=0;whiteSpace=wrap;html=1;" parent="1" vertex="1">
          <mxGeometry x="390" y="873" width="149" height="80" as="geometry" />
        </mxCell>
        <mxCell id="s9xyFnBMHQ_bjVRWuZO3-17" value="Yes" style="edgeStyle=orthogonalEdgeStyle;rounded=0;orthogonalLoop=1;jettySize=auto;html=1;exitX=1;exitY=0.5;exitDx=0;exitDy=0;entryX=0;entryY=0.5;entryDx=0;entryDy=0;strokeWidth=2;" parent="1" source="s9xyFnBMHQ_bjVRWuZO3-12" target="s9xyFnBMHQ_bjVRWuZO3-16" edge="1">
          <mxGeometry relative="1" as="geometry" />
        </mxCell>
        <mxCell id="s9xyFnBMHQ_bjVRWuZO3-20" value="No" style="edgeStyle=orthogonalEdgeStyle;rounded=0;orthogonalLoop=1;jettySize=auto;html=1;exitX=0.25;exitY=1;exitDx=0;exitDy=0;entryX=0.25;entryY=0;entryDx=0;entryDy=0;strokeWidth=2;" parent="1" source="s9xyFnBMHQ_bjVRWuZO3-12" target="s9xyFnBMHQ_bjVRWuZO3-19" edge="1">
          <mxGeometry relative="1" as="geometry" />
        </mxCell>
        <mxCell id="s9xyFnBMHQ_bjVRWuZO3-12" value="Group IS &quot;Customer Ops &amp;amp; Success Tribe&quot;" style="rounded=0;whiteSpace=wrap;html=1;fillColor=#fff2cc;strokeColor=#d6b656;" parent="1" vertex="1">
          <mxGeometry x="3" y="1078" width="180" height="42" as="geometry" />
        </mxCell>
        <mxCell id="s9xyFnBMHQ_bjVRWuZO3-21" style="edgeStyle=orthogonalEdgeStyle;rounded=0;orthogonalLoop=1;jettySize=auto;html=1;exitX=0.5;exitY=1;exitDx=0;exitDy=0;entryX=0.644;entryY=-0.025;entryDx=0;entryDy=0;entryPerimeter=0;strokeWidth=2;" parent="1" source="s9xyFnBMHQ_bjVRWuZO3-16" target="s9xyFnBMHQ_bjVRWuZO3-19" edge="1">
          <mxGeometry relative="1" as="geometry" />
        </mxCell>
        <mxCell id="s9xyFnBMHQ_bjVRWuZO3-16" value="Send email to Cronos SD&lt;br&gt;(Subject:&amp;nbsp;&lt;span&gt;&lt;i&gt;Nieuwe Arxus medewerker &amp;lt;user&amp;gt;&lt;/i&gt;&lt;/span&gt;)&lt;br&gt;first-contact@arxus.eu" style="rounded=0;whiteSpace=wrap;html=1;" parent="1" vertex="1">
          <mxGeometry x="220" y="1030" width="149" height="80" as="geometry" />
        </mxCell>
        <mxCell id="s9xyFnBMHQ_bjVRWuZO3-18" value="Send email to Cronos SD&lt;br&gt;(Subject:&amp;nbsp;&lt;span&gt;&lt;i&gt;Toevoegen Visio licentie voor&amp;nbsp;&amp;lt;user&amp;gt;&lt;/i&gt;&lt;/span&gt;)" style="rounded=0;whiteSpace=wrap;html=1;" parent="1" vertex="1">
          <mxGeometry x="402" y="1030" width="149" height="80" as="geometry" />
        </mxCell>
        <mxCell id="s9xyFnBMHQ_bjVRWuZO3-27" value="No" style="edgeStyle=orthogonalEdgeStyle;rounded=0;orthogonalLoop=1;jettySize=auto;html=1;exitX=0.25;exitY=1;exitDx=0;exitDy=0;entryX=0.25;entryY=0;entryDx=0;entryDy=0;strokeWidth=2;" parent="1" source="s9xyFnBMHQ_bjVRWuZO3-19" target="s9xyFnBMHQ_bjVRWuZO3-26" edge="1">
          <mxGeometry relative="1" as="geometry" />
        </mxCell>
        <mxCell id="t3DnAIWewciy8LTK_AGN-14" value="Yes" style="edgeStyle=orthogonalEdgeStyle;rounded=0;orthogonalLoop=1;jettySize=auto;html=1;exitX=1;exitY=0.25;exitDx=0;exitDy=0;entryX=0.5;entryY=1;entryDx=0;entryDy=0;strokeWidth=2;" parent="1" source="s9xyFnBMHQ_bjVRWuZO3-19" target="s9xyFnBMHQ_bjVRWuZO3-18" edge="1">
          <mxGeometry x="-0.752" relative="1" as="geometry">
            <mxPoint as="offset" />
          </mxGeometry>
        </mxCell>
        <mxCell id="s9xyFnBMHQ_bjVRWuZO3-19" value="If Visio" style="rounded=0;whiteSpace=wrap;html=1;fillColor=#fff2cc;strokeColor=#d6b656;" parent="1" vertex="1">
          <mxGeometry x="3" y="1188" width="180" height="30" as="geometry" />
        </mxCell>
        <mxCell id="s9xyFnBMHQ_bjVRWuZO3-36" value="No" style="edgeStyle=orthogonalEdgeStyle;rounded=0;orthogonalLoop=1;jettySize=auto;html=1;exitX=0.25;exitY=1;exitDx=0;exitDy=0;entryX=0.25;entryY=0;entryDx=0;entryDy=0;strokeWidth=2;" parent="1" source="s9xyFnBMHQ_bjVRWuZO3-26" target="s9xyFnBMHQ_bjVRWuZO3-33" edge="1">
          <mxGeometry relative="1" as="geometry" />
        </mxCell>
        <mxCell id="6qDiRBghWWKs1oB0LZaE-1" value="Yes" style="edgeStyle=orthogonalEdgeStyle;rounded=0;orthogonalLoop=1;jettySize=auto;html=1;exitX=1;exitY=0.5;exitDx=0;exitDy=0;entryX=0;entryY=0.613;entryDx=0;entryDy=0;entryPerimeter=0;strokeWidth=2;" edge="1" parent="1" source="s9xyFnBMHQ_bjVRWuZO3-26" target="s9xyFnBMHQ_bjVRWuZO3-28">
          <mxGeometry relative="1" as="geometry" />
        </mxCell>
        <mxCell id="s9xyFnBMHQ_bjVRWuZO3-26" value="Group IS &quot;Sales &amp;amp; Marketing&quot; or IS &quot;Admin &amp;amp; Finance&quot; or IS &quot;Business Services (other)&quot;" style="rounded=0;whiteSpace=wrap;html=1;fillColor=#fff2cc;strokeColor=#d6b656;" parent="1" vertex="1">
          <mxGeometry x="3" y="1251" width="180" height="63" as="geometry" />
        </mxCell>
        <mxCell id="s9xyFnBMHQ_bjVRWuZO3-32" style="edgeStyle=orthogonalEdgeStyle;rounded=0;orthogonalLoop=1;jettySize=auto;html=1;exitX=1;exitY=0.5;exitDx=0;exitDy=0;entryX=0;entryY=0.5;entryDx=0;entryDy=0;strokeWidth=2;" parent="1" source="s9xyFnBMHQ_bjVRWuZO3-28" target="s9xyFnBMHQ_bjVRWuZO3-31" edge="1">
          <mxGeometry relative="1" as="geometry" />
        </mxCell>
        <mxCell id="s9xyFnBMHQ_bjVRWuZO3-28" value="&lt;b&gt;CATALOG TASK&lt;br&gt;&lt;/b&gt;&lt;span&gt;Request Dynamics &amp;lt;license&amp;gt; licentie for&amp;nbsp;&lt;/span&gt;&amp;lt;user&amp;gt;" style="rounded=0;whiteSpace=wrap;html=1;" parent="1" vertex="1">
          <mxGeometry x="240" y="1234" width="160" height="80" as="geometry" />
        </mxCell>
        <mxCell id="s9xyFnBMHQ_bjVRWuZO3-46" style="edgeStyle=orthogonalEdgeStyle;rounded=0;orthogonalLoop=1;jettySize=auto;html=1;exitX=0.5;exitY=1;exitDx=0;exitDy=0;entryX=0.652;entryY=0;entryDx=0;entryDy=0;entryPerimeter=0;strokeWidth=2;" parent="1" source="s9xyFnBMHQ_bjVRWuZO3-31" target="s9xyFnBMHQ_bjVRWuZO3-33" edge="1">
          <mxGeometry relative="1" as="geometry">
            <Array as="points">
              <mxPoint x="520" y="1330" />
              <mxPoint x="120" y="1330" />
            </Array>
          </mxGeometry>
        </mxCell>
        <mxCell id="s9xyFnBMHQ_bjVRWuZO3-31" value="&lt;b&gt;CATALOG TASK&lt;br&gt;&lt;/b&gt;&lt;span&gt;Assign Dynamics Security roles to&amp;nbsp;&lt;/span&gt;&amp;lt;user&amp;gt;" style="rounded=0;whiteSpace=wrap;html=1;" parent="1" vertex="1">
          <mxGeometry x="443.5" y="1234" width="160" height="80" as="geometry" />
        </mxCell>
        <mxCell id="s9xyFnBMHQ_bjVRWuZO3-40" value="Yes" style="edgeStyle=orthogonalEdgeStyle;rounded=0;orthogonalLoop=1;jettySize=auto;html=1;strokeWidth=2;" parent="1" source="s9xyFnBMHQ_bjVRWuZO3-33" target="s9xyFnBMHQ_bjVRWuZO3-37" edge="1">
          <mxGeometry relative="1" as="geometry" />
        </mxCell>
        <mxCell id="s9xyFnBMHQ_bjVRWuZO3-42" value="No" style="edgeStyle=orthogonalEdgeStyle;rounded=0;orthogonalLoop=1;jettySize=auto;html=1;exitX=0.25;exitY=1;exitDx=0;exitDy=0;entryX=0.25;entryY=0;entryDx=0;entryDy=0;strokeWidth=2;" parent="1" source="s9xyFnBMHQ_bjVRWuZO3-33" target="s9xyFnBMHQ_bjVRWuZO3-41" edge="1">
          <mxGeometry relative="1" as="geometry" />
        </mxCell>
        <mxCell id="s9xyFnBMHQ_bjVRWuZO3-33" value="&lt;span&gt;Employee type IS &lt;/span&gt;&lt;span&gt;&quot;internal Altogee&quot; or IS &quot;internal Cloudfuel&quot;&lt;/span&gt;" style="rounded=0;whiteSpace=wrap;html=1;fillColor=#fff2cc;strokeColor=#d6b656;" parent="1" vertex="1">
          <mxGeometry x="4" y="1374" width="178" height="50" as="geometry" />
        </mxCell>
        <mxCell id="s9xyFnBMHQ_bjVRWuZO3-47" style="edgeStyle=orthogonalEdgeStyle;rounded=0;orthogonalLoop=1;jettySize=auto;html=1;exitX=0.5;exitY=1;exitDx=0;exitDy=0;entryX=0.657;entryY=0.04;entryDx=0;entryDy=0;entryPerimeter=0;strokeWidth=2;" parent="1" source="s9xyFnBMHQ_bjVRWuZO3-37" target="s9xyFnBMHQ_bjVRWuZO3-41" edge="1">
          <mxGeometry relative="1" as="geometry">
            <Array as="points">
              <mxPoint x="322" y="1440" />
              <mxPoint x="121" y="1440" />
            </Array>
          </mxGeometry>
        </mxCell>
        <mxCell id="s9xyFnBMHQ_bjVRWuZO3-37" value="&lt;b&gt;CATALOG TASK&lt;br&gt;&lt;/b&gt;&lt;span&gt;Add&amp;nbsp;&lt;/span&gt;&amp;lt;user&amp;gt; to Crossware" style="rounded=0;whiteSpace=wrap;html=1;" parent="1" vertex="1">
          <mxGeometry x="240" y="1340" width="160" height="80" as="geometry" />
        </mxCell>
        <mxCell id="s9xyFnBMHQ_bjVRWuZO3-48" value="Yes" style="edgeStyle=orthogonalEdgeStyle;rounded=0;orthogonalLoop=1;jettySize=auto;html=1;exitX=1;exitY=0.5;exitDx=0;exitDy=0;entryX=0.25;entryY=1;entryDx=0;entryDy=0;strokeWidth=2;" parent="1" source="s9xyFnBMHQ_bjVRWuZO3-41" target="s9xyFnBMHQ_bjVRWuZO3-43" edge="1">
          <mxGeometry x="-0.7918" y="2" relative="1" as="geometry">
            <mxPoint as="offset" />
          </mxGeometry>
        </mxCell>
        <mxCell id="67VnopGBwdh8NgFNt6EZ-2" value="No" style="edgeStyle=orthogonalEdgeStyle;rounded=0;orthogonalLoop=1;jettySize=auto;html=1;exitX=0.25;exitY=1;exitDx=0;exitDy=0;entryX=0.25;entryY=0;entryDx=0;entryDy=0;strokeWidth=2;" parent="1" source="s9xyFnBMHQ_bjVRWuZO3-41" target="67VnopGBwdh8NgFNt6EZ-1" edge="1">
          <mxGeometry relative="1" as="geometry" />
        </mxCell>
        <mxCell id="s9xyFnBMHQ_bjVRWuZO3-41" value="&lt;span&gt;Employee type IS &quot;Internal&quot; or IS &quot;Freelancer&quot; or &lt;/span&gt;&lt;span&gt;IS &quot;Stagiar&quot;&lt;/span&gt;" style="rounded=0;whiteSpace=wrap;html=1;fillColor=#fff2cc;strokeColor=#d6b656;" parent="1" vertex="1">
          <mxGeometry x="4" y="1467" width="178" height="50" as="geometry" />
        </mxCell>
        <mxCell id="67VnopGBwdh8NgFNt6EZ-4" style="edgeStyle=orthogonalEdgeStyle;rounded=0;orthogonalLoop=1;jettySize=auto;html=1;exitX=0.75;exitY=1;exitDx=0;exitDy=0;entryX=0.65;entryY=0;entryDx=0;entryDy=0;entryPerimeter=0;strokeWidth=2;" parent="1" source="s9xyFnBMHQ_bjVRWuZO3-43" target="67VnopGBwdh8NgFNt6EZ-1" edge="1">
          <mxGeometry relative="1" as="geometry">
            <Array as="points">
              <mxPoint x="560" y="1530" />
              <mxPoint x="120" y="1530" />
            </Array>
          </mxGeometry>
        </mxCell>
        <mxCell id="s9xyFnBMHQ_bjVRWuZO3-43" value="&lt;b&gt;CATALOG TASK&lt;br&gt;&lt;/b&gt;&lt;span&gt;Send Slack invite to&amp;nbsp;&lt;/span&gt;&amp;lt;user&amp;gt;" style="rounded=0;whiteSpace=wrap;html=1;" parent="1" vertex="1">
          <mxGeometry x="440" y="1345" width="160" height="80" as="geometry" />
        </mxCell>
        <mxCell id="67VnopGBwdh8NgFNt6EZ-6" value="Yes" style="edgeStyle=orthogonalEdgeStyle;rounded=0;orthogonalLoop=1;jettySize=auto;html=1;exitX=1;exitY=0.25;exitDx=0;exitDy=0;entryX=0.013;entryY=0.338;entryDx=0;entryDy=0;entryPerimeter=0;strokeWidth=2;" parent="1" source="67VnopGBwdh8NgFNt6EZ-1" target="67VnopGBwdh8NgFNt6EZ-5" edge="1">
          <mxGeometry relative="1" as="geometry" />
        </mxCell>
        <mxCell id="67VnopGBwdh8NgFNt6EZ-8" value="No" style="edgeStyle=orthogonalEdgeStyle;rounded=0;orthogonalLoop=1;jettySize=auto;html=1;exitX=0.25;exitY=1;exitDx=0;exitDy=0;entryX=0.25;entryY=0;entryDx=0;entryDy=0;strokeWidth=2;" parent="1" source="67VnopGBwdh8NgFNt6EZ-1" target="67VnopGBwdh8NgFNt6EZ-7" edge="1">
          <mxGeometry relative="1" as="geometry" />
        </mxCell>
        <mxCell id="67VnopGBwdh8NgFNt6EZ-1" value="&lt;span&gt;Employee type IS &quot;Cronos Medeworker - Korte Termijn&quot; or&amp;nbsp;&lt;/span&gt;IS &quot;Cronos Medeworker - Lange Termijn&quot;&amp;nbsp;&lt;span&gt;or IS &quot;Externe Medeworker - Contractor Plus&quot;&amp;nbsp;&lt;/span&gt;or IS &quot;internal Altogee&quot; or IS &quot;internal Cloudfuel&quot;" style="rounded=0;whiteSpace=wrap;html=1;fillColor=#fff2cc;strokeColor=#d6b656;" parent="1" vertex="1">
          <mxGeometry x="3" y="1564" width="180" height="110" as="geometry" />
        </mxCell>
        <mxCell id="67VnopGBwdh8NgFNt6EZ-9" style="edgeStyle=orthogonalEdgeStyle;rounded=0;orthogonalLoop=1;jettySize=auto;html=1;exitX=0.5;exitY=1;exitDx=0;exitDy=0;entryX=0.657;entryY=0.02;entryDx=0;entryDy=0;entryPerimeter=0;strokeWidth=2;" parent="1" source="67VnopGBwdh8NgFNt6EZ-5" target="67VnopGBwdh8NgFNt6EZ-7" edge="1">
          <mxGeometry relative="1" as="geometry">
            <Array as="points">
              <mxPoint x="320" y="1690" />
              <mxPoint x="121" y="1690" />
            </Array>
          </mxGeometry>
        </mxCell>
        <mxCell id="67VnopGBwdh8NgFNt6EZ-5" value="&lt;b&gt;CATALOG TASK&lt;br&gt;&lt;/b&gt;&lt;span&gt;Send Slack Multi Channel Guest invite to&amp;nbsp;&lt;/span&gt;&amp;lt;user&amp;gt;" style="rounded=0;whiteSpace=wrap;html=1;" parent="1" vertex="1">
          <mxGeometry x="240" y="1560" width="160" height="80" as="geometry" />
        </mxCell>
        <mxCell id="67VnopGBwdh8NgFNt6EZ-12" value="Yes" style="edgeStyle=orthogonalEdgeStyle;rounded=0;orthogonalLoop=1;jettySize=auto;html=1;exitX=1;exitY=0.25;exitDx=0;exitDy=0;entryX=0.25;entryY=1;entryDx=0;entryDy=0;strokeWidth=2;" parent="1" source="67VnopGBwdh8NgFNt6EZ-7" target="67VnopGBwdh8NgFNt6EZ-10" edge="1">
          <mxGeometry x="-0.8104" relative="1" as="geometry">
            <mxPoint as="offset" />
          </mxGeometry>
        </mxCell>
        <mxCell id="U8kBTjzmoHOU7TE96t3S-14" value="No" style="edgeStyle=orthogonalEdgeStyle;rounded=0;orthogonalLoop=1;jettySize=auto;html=1;exitX=0.25;exitY=1;exitDx=0;exitDy=0;entryX=0.25;entryY=0;entryDx=0;entryDy=0;strokeWidth=2;" parent="1" source="67VnopGBwdh8NgFNt6EZ-7" target="U8kBTjzmoHOU7TE96t3S-13" edge="1">
          <mxGeometry relative="1" as="geometry" />
        </mxCell>
        <mxCell id="67VnopGBwdh8NgFNt6EZ-7" value="&lt;span&gt;Employee type IS &quot;Internal&quot; or IS &quot;Freelancer&quot; or IS &quot;&lt;/span&gt;Cronos Medeworker - Lange Termijn&lt;span&gt;&quot; or IS &quot;Stagiar&quot; or IS &quot;internal Altogee&quot; or IS &quot;internal Cloudfuel&quot;&lt;/span&gt;" style="rounded=0;whiteSpace=wrap;html=1;fillColor=#fff2cc;strokeColor=#d6b656;" parent="1" vertex="1">
          <mxGeometry x="4" y="1720" width="178" height="99" as="geometry" />
        </mxCell>
        <mxCell id="67VnopGBwdh8NgFNt6EZ-19" style="edgeStyle=orthogonalEdgeStyle;rounded=0;orthogonalLoop=1;jettySize=auto;html=1;exitX=1;exitY=0.5;exitDx=0;exitDy=0;entryX=0;entryY=0.5;entryDx=0;entryDy=0;strokeWidth=2;" parent="1" source="67VnopGBwdh8NgFNt6EZ-10" target="67VnopGBwdh8NgFNt6EZ-13" edge="1">
          <mxGeometry relative="1" as="geometry">
            <Array as="points">
              <mxPoint x="610" y="1600" />
              <mxPoint x="610" y="1485" />
            </Array>
          </mxGeometry>
        </mxCell>
        <mxCell id="67VnopGBwdh8NgFNt6EZ-10" value="&lt;b&gt;CATALOG TASK&lt;br&gt;&lt;/b&gt;&lt;span&gt;Grant&amp;nbsp;&lt;/span&gt;&amp;lt;user&amp;gt;&amp;nbsp;&lt;span&gt;access to the Arxus calendar&lt;/span&gt;" style="rounded=0;whiteSpace=wrap;html=1;" parent="1" vertex="1">
          <mxGeometry x="438" y="1560" width="160" height="80" as="geometry" />
        </mxCell>
        <mxCell id="U8kBTjzmoHOU7TE96t3S-1" value="Yes" style="edgeStyle=orthogonalEdgeStyle;rounded=0;orthogonalLoop=1;jettySize=auto;html=1;exitX=0.75;exitY=1;exitDx=0;exitDy=0;strokeWidth=2;" parent="1" source="67VnopGBwdh8NgFNt6EZ-13" target="67VnopGBwdh8NgFNt6EZ-15" edge="1">
          <mxGeometry relative="1" as="geometry" />
        </mxCell>
        <mxCell id="U8kBTjzmoHOU7TE96t3S-5" value="No" style="edgeStyle=orthogonalEdgeStyle;rounded=0;orthogonalLoop=1;jettySize=auto;html=1;exitX=0.25;exitY=1;exitDx=0;exitDy=0;entryX=0.25;entryY=0;entryDx=0;entryDy=0;strokeWidth=2;" parent="1" source="67VnopGBwdh8NgFNt6EZ-13" target="U8kBTjzmoHOU7TE96t3S-2" edge="1">
          <mxGeometry x="-0.515" relative="1" as="geometry">
            <Array as="points">
              <mxPoint x="677" y="1540" />
              <mxPoint x="630" y="1540" />
              <mxPoint x="630" y="1630" />
              <mxPoint x="677" y="1630" />
            </Array>
            <mxPoint x="1" as="offset" />
          </mxGeometry>
        </mxCell>
        <mxCell id="67VnopGBwdh8NgFNt6EZ-13" value="&lt;span&gt;Employee type NOT &quot;internal Cloudfuel&quot;&lt;/span&gt;" style="rounded=0;whiteSpace=wrap;html=1;fillColor=#fff2cc;strokeColor=#d6b656;" parent="1" vertex="1">
          <mxGeometry x="632" y="1460" width="178" height="50" as="geometry" />
        </mxCell>
        <mxCell id="U8kBTjzmoHOU7TE96t3S-4" style="edgeStyle=orthogonalEdgeStyle;rounded=0;orthogonalLoop=1;jettySize=auto;html=1;exitX=0.75;exitY=1;exitDx=0;exitDy=0;strokeWidth=2;" parent="1" source="67VnopGBwdh8NgFNt6EZ-15" target="U8kBTjzmoHOU7TE96t3S-2" edge="1">
          <mxGeometry relative="1" as="geometry">
            <Array as="points">
              <mxPoint x="770" y="1630" />
              <mxPoint x="721" y="1630" />
            </Array>
          </mxGeometry>
        </mxCell>
        <mxCell id="67VnopGBwdh8NgFNt6EZ-15" value="&lt;b&gt;CATALOG TASK&lt;br&gt;&lt;/b&gt;&lt;span&gt;Provide Sharepoint access to&amp;nbsp;&lt;/span&gt;&amp;lt;user&amp;gt;" style="rounded=0;whiteSpace=wrap;html=1;" parent="1" vertex="1">
          <mxGeometry x="650" y="1560" width="160" height="56" as="geometry" />
        </mxCell>
        <mxCell id="U8kBTjzmoHOU7TE96t3S-7" value="Yes" style="edgeStyle=orthogonalEdgeStyle;rounded=0;orthogonalLoop=1;jettySize=auto;html=1;exitX=0.75;exitY=1;exitDx=0;exitDy=0;entryX=0.5;entryY=0;entryDx=0;entryDy=0;strokeWidth=2;" parent="1" source="U8kBTjzmoHOU7TE96t3S-2" target="U8kBTjzmoHOU7TE96t3S-6" edge="1">
          <mxGeometry relative="1" as="geometry" />
        </mxCell>
        <mxCell id="U8kBTjzmoHOU7TE96t3S-15" value="No" style="edgeStyle=orthogonalEdgeStyle;rounded=0;orthogonalLoop=1;jettySize=auto;html=1;exitX=0;exitY=0.5;exitDx=0;exitDy=0;entryX=0.652;entryY=0;entryDx=0;entryDy=0;entryPerimeter=0;strokeWidth=2;" parent="1" source="U8kBTjzmoHOU7TE96t3S-2" target="U8kBTjzmoHOU7TE96t3S-13" edge="1">
          <mxGeometry x="-0.8812" relative="1" as="geometry">
            <Array as="points">
              <mxPoint x="550" y="1675" />
              <mxPoint x="550" y="1770" />
              <mxPoint x="210" y="1770" />
              <mxPoint x="210" y="1830" />
              <mxPoint x="120" y="1830" />
            </Array>
            <mxPoint as="offset" />
          </mxGeometry>
        </mxCell>
        <mxCell id="U8kBTjzmoHOU7TE96t3S-2" value="&lt;span&gt;Employee type NOT &quot;Stagiar&quot;&lt;/span&gt;" style="rounded=0;whiteSpace=wrap;html=1;fillColor=#fff2cc;strokeColor=#d6b656;" parent="1" vertex="1">
          <mxGeometry x="632" y="1650" width="178" height="50" as="geometry" />
        </mxCell>
        <mxCell id="U8kBTjzmoHOU7TE96t3S-9" style="edgeStyle=orthogonalEdgeStyle;rounded=0;orthogonalLoop=1;jettySize=auto;html=1;exitX=0.75;exitY=1;exitDx=0;exitDy=0;strokeWidth=2;" parent="1" source="U8kBTjzmoHOU7TE96t3S-6" target="U8kBTjzmoHOU7TE96t3S-8" edge="1">
          <mxGeometry relative="1" as="geometry" />
        </mxCell>
        <mxCell id="U8kBTjzmoHOU7TE96t3S-6" value="&lt;b&gt;CATALOG TASK&lt;br&gt;&lt;/b&gt;&lt;span&gt;Add&amp;nbsp;&lt;/span&gt;&amp;lt;user&amp;gt; to WhatsApp" style="rounded=0;whiteSpace=wrap;html=1;" parent="1" vertex="1">
          <mxGeometry x="650" y="1741.5" width="160" height="56" as="geometry" />
        </mxCell>
        <mxCell id="U8kBTjzmoHOU7TE96t3S-12" value="Yes" style="edgeStyle=orthogonalEdgeStyle;rounded=0;orthogonalLoop=1;jettySize=auto;html=1;exitX=0;exitY=0.25;exitDx=0;exitDy=0;strokeWidth=2;" parent="1" source="U8kBTjzmoHOU7TE96t3S-8" target="U8kBTjzmoHOU7TE96t3S-10" edge="1">
          <mxGeometry relative="1" as="geometry" />
        </mxCell>
        <mxCell id="6qDiRBghWWKs1oB0LZaE-4" value="No" style="edgeStyle=orthogonalEdgeStyle;rounded=0;orthogonalLoop=1;jettySize=auto;html=1;exitX=0;exitY=0.75;exitDx=0;exitDy=0;entryX=1;entryY=0.25;entryDx=0;entryDy=0;strokeWidth=2;" edge="1" parent="1" source="U8kBTjzmoHOU7TE96t3S-8" target="U8kBTjzmoHOU7TE96t3S-13">
          <mxGeometry x="-0.7899" relative="1" as="geometry">
            <Array as="points">
              <mxPoint x="470" y="1878" />
              <mxPoint x="470" y="1860" />
              <mxPoint x="230" y="1860" />
              <mxPoint x="230" y="1888" />
            </Array>
            <mxPoint as="offset" />
          </mxGeometry>
        </mxCell>
        <mxCell id="U8kBTjzmoHOU7TE96t3S-8" value="&lt;span&gt;If Teams Telephony&lt;/span&gt;" style="rounded=0;whiteSpace=wrap;html=1;fillColor=#fff2cc;strokeColor=#d6b656;" parent="1" vertex="1">
          <mxGeometry x="632" y="1840" width="178" height="50" as="geometry" />
        </mxCell>
        <mxCell id="U8kBTjzmoHOU7TE96t3S-18" style="edgeStyle=orthogonalEdgeStyle;rounded=0;orthogonalLoop=1;jettySize=auto;html=1;exitX=0;exitY=0.5;exitDx=0;exitDy=0;entryX=0.876;entryY=0.01;entryDx=0;entryDy=0;entryPerimeter=0;strokeWidth=2;" parent="1" source="U8kBTjzmoHOU7TE96t3S-10" target="U8kBTjzmoHOU7TE96t3S-13" edge="1">
          <mxGeometry relative="1" as="geometry">
            <Array as="points">
              <mxPoint x="230" y="1818" />
              <mxPoint x="230" y="1850" />
              <mxPoint x="160" y="1850" />
            </Array>
          </mxGeometry>
        </mxCell>
        <mxCell id="U8kBTjzmoHOU7TE96t3S-10" value="&lt;b&gt;CATALOG TASK&lt;br&gt;&lt;/b&gt;Setup Teams Telephony for &amp;lt;user&amp;gt;" style="rounded=0;whiteSpace=wrap;html=1;" parent="1" vertex="1">
          <mxGeometry x="422" y="1790" width="160" height="56" as="geometry" />
        </mxCell>
        <mxCell id="U8kBTjzmoHOU7TE96t3S-22" value="No" style="edgeStyle=orthogonalEdgeStyle;rounded=0;orthogonalLoop=1;jettySize=auto;html=1;exitX=0.25;exitY=1;exitDx=0;exitDy=0;entryX=0.25;entryY=0;entryDx=0;entryDy=0;strokeWidth=2;" parent="1" source="U8kBTjzmoHOU7TE96t3S-13" target="U8kBTjzmoHOU7TE96t3S-21" edge="1">
          <mxGeometry relative="1" as="geometry" />
        </mxCell>
        <mxCell id="6qDiRBghWWKs1oB0LZaE-3" value="Yes" style="edgeStyle=orthogonalEdgeStyle;rounded=0;orthogonalLoop=1;jettySize=auto;html=1;exitX=1;exitY=0.75;exitDx=0;exitDy=0;entryX=0;entryY=0.75;entryDx=0;entryDy=0;strokeWidth=2;" edge="1" parent="1" source="U8kBTjzmoHOU7TE96t3S-13" target="U8kBTjzmoHOU7TE96t3S-19">
          <mxGeometry x="-0.4742" relative="1" as="geometry">
            <mxPoint as="offset" />
          </mxGeometry>
        </mxCell>
        <mxCell id="U8kBTjzmoHOU7TE96t3S-13" value="&lt;span&gt;Employee type IS &quot;Internal&quot; or IS &quot;Freelancer&quot; &lt;/span&gt;&lt;span&gt;or IS &quot;internal Altogee&quot; or IS &quot;internal Cloudfuel&quot;&lt;/span&gt;" style="rounded=0;whiteSpace=wrap;html=1;fillColor=#fff2cc;strokeColor=#d6b656;" parent="1" vertex="1">
          <mxGeometry x="4" y="1870" width="178" height="70" as="geometry" />
        </mxCell>
        <mxCell id="U8kBTjzmoHOU7TE96t3S-23" style="edgeStyle=orthogonalEdgeStyle;rounded=0;orthogonalLoop=1;jettySize=auto;html=1;exitX=0.5;exitY=1;exitDx=0;exitDy=0;strokeWidth=2;" parent="1" source="U8kBTjzmoHOU7TE96t3S-19" edge="1">
          <mxGeometry relative="1" as="geometry">
            <mxPoint x="120" y="1990" as="targetPoint" />
            <Array as="points">
              <mxPoint x="334" y="1950" />
              <mxPoint x="120" y="1950" />
            </Array>
          </mxGeometry>
        </mxCell>
        <mxCell id="U8kBTjzmoHOU7TE96t3S-19" value="&lt;b&gt;CATALOG TASK&lt;br&gt;&lt;/b&gt;Provide Timesheet access to &amp;lt;user&amp;gt;" style="rounded=0;whiteSpace=wrap;html=1;" parent="1" vertex="1">
          <mxGeometry x="278" y="1870" width="160" height="56" as="geometry" />
        </mxCell>
        <mxCell id="U8kBTjzmoHOU7TE96t3S-25" value="Yes" style="edgeStyle=orthogonalEdgeStyle;rounded=0;orthogonalLoop=1;jettySize=auto;html=1;exitX=1;exitY=0.5;exitDx=0;exitDy=0;entryX=0;entryY=0.5;entryDx=0;entryDy=0;strokeWidth=2;" parent="1" source="U8kBTjzmoHOU7TE96t3S-21" target="U8kBTjzmoHOU7TE96t3S-24" edge="1">
          <mxGeometry relative="1" as="geometry" />
        </mxCell>
        <mxCell id="U8kBTjzmoHOU7TE96t3S-35" value="No" style="edgeStyle=orthogonalEdgeStyle;rounded=0;orthogonalLoop=1;jettySize=auto;html=1;exitX=0.25;exitY=1;exitDx=0;exitDy=0;entryX=0.25;entryY=0;entryDx=0;entryDy=0;strokeWidth=2;" parent="1" source="U8kBTjzmoHOU7TE96t3S-21" target="U8kBTjzmoHOU7TE96t3S-34" edge="1">
          <mxGeometry relative="1" as="geometry" />
        </mxCell>
        <mxCell id="U8kBTjzmoHOU7TE96t3S-21" value="&lt;span&gt;Employee type IS &quot;Internal&quot; or IS &quot;Freelancer&quot;&lt;br&gt;and Laptop Required&lt;br&gt;&lt;/span&gt;" style="rounded=0;whiteSpace=wrap;html=1;fillColor=#fff2cc;strokeColor=#d6b656;" parent="1" vertex="1">
          <mxGeometry x="4" y="1990" width="178" height="50" as="geometry" />
        </mxCell>
        <mxCell id="U8kBTjzmoHOU7TE96t3S-28" style="edgeStyle=orthogonalEdgeStyle;rounded=0;orthogonalLoop=1;jettySize=auto;html=1;exitX=1;exitY=0.5;exitDx=0;exitDy=0;strokeWidth=2;" parent="1" source="U8kBTjzmoHOU7TE96t3S-24" target="U8kBTjzmoHOU7TE96t3S-26" edge="1">
          <mxGeometry relative="1" as="geometry" />
        </mxCell>
        <mxCell id="U8kBTjzmoHOU7TE96t3S-24" value="&lt;b&gt;CATALOG TASK&lt;br&gt;&lt;/b&gt;Create TeamViewer account for &amp;lt;user&amp;gt;" style="rounded=0;whiteSpace=wrap;html=1;" parent="1" vertex="1">
          <mxGeometry x="360" y="1940" width="160" height="56" as="geometry" />
        </mxCell>
        <mxCell id="U8kBTjzmoHOU7TE96t3S-30" style="edgeStyle=orthogonalEdgeStyle;rounded=0;orthogonalLoop=1;jettySize=auto;html=1;exitX=1;exitY=0.5;exitDx=0;exitDy=0;entryX=1;entryY=0.5;entryDx=0;entryDy=0;strokeWidth=2;" parent="1" source="U8kBTjzmoHOU7TE96t3S-26" target="U8kBTjzmoHOU7TE96t3S-29" edge="1">
          <mxGeometry relative="1" as="geometry" />
        </mxCell>
        <mxCell id="U8kBTjzmoHOU7TE96t3S-26" value="&lt;b&gt;CATALOG TASK&lt;br&gt;&lt;/b&gt;&lt;span&gt;Provide access to the Billing tool for&lt;/span&gt;&amp;nbsp;&amp;lt;user&amp;gt;" style="rounded=0;whiteSpace=wrap;html=1;" parent="1" vertex="1">
          <mxGeometry x="560" y="1940" width="160" height="56" as="geometry" />
        </mxCell>
        <mxCell id="U8kBTjzmoHOU7TE96t3S-33" value="Yes" style="edgeStyle=orthogonalEdgeStyle;rounded=0;orthogonalLoop=1;jettySize=auto;html=1;exitX=0;exitY=0.5;exitDx=0;exitDy=0;strokeWidth=2;" parent="1" source="U8kBTjzmoHOU7TE96t3S-29" target="U8kBTjzmoHOU7TE96t3S-31" edge="1">
          <mxGeometry relative="1" as="geometry" />
        </mxCell>
        <mxCell id="U8kBTjzmoHOU7TE96t3S-47" style="edgeStyle=orthogonalEdgeStyle;rounded=0;orthogonalLoop=1;jettySize=auto;html=1;exitX=0.5;exitY=1;exitDx=0;exitDy=0;entryX=1;entryY=0.25;entryDx=0;entryDy=0;strokeWidth=2;" parent="1" source="U8kBTjzmoHOU7TE96t3S-29" target="U8kBTjzmoHOU7TE96t3S-34" edge="1">
          <mxGeometry relative="1" as="geometry" />
        </mxCell>
        <mxCell id="U8kBTjzmoHOU7TE96t3S-29" value="&lt;span&gt;Group IS &quot;Customer Ops &amp;amp; Success Tribe&quot;&lt;/span&gt;" style="rounded=0;whiteSpace=wrap;html=1;fillColor=#fff2cc;strokeColor=#d6b656;" parent="1" vertex="1">
          <mxGeometry x="560" y="2020" width="160" height="50" as="geometry" />
        </mxCell>
        <mxCell id="U8kBTjzmoHOU7TE96t3S-37" style="edgeStyle=orthogonalEdgeStyle;rounded=0;orthogonalLoop=1;jettySize=auto;html=1;exitX=0;exitY=0.75;exitDx=0;exitDy=0;entryX=0.652;entryY=0;entryDx=0;entryDy=0;entryPerimeter=0;strokeWidth=2;" parent="1" source="U8kBTjzmoHOU7TE96t3S-31" target="U8kBTjzmoHOU7TE96t3S-34" edge="1">
          <mxGeometry relative="1" as="geometry" />
        </mxCell>
        <mxCell id="U8kBTjzmoHOU7TE96t3S-31" value="&lt;b&gt;CATALOG TASK&lt;br&gt;&lt;/b&gt;&lt;span&gt;Create Nictool account for&lt;/span&gt;&amp;nbsp;&amp;lt;user&amp;gt;" style="rounded=0;whiteSpace=wrap;html=1;" parent="1" vertex="1">
          <mxGeometry x="320" y="2017" width="160" height="56" as="geometry" />
        </mxCell>
        <mxCell id="U8kBTjzmoHOU7TE96t3S-41" value="Yes" style="edgeStyle=orthogonalEdgeStyle;rounded=0;orthogonalLoop=1;jettySize=auto;html=1;exitX=0.652;exitY=1;exitDx=0;exitDy=0;entryX=0;entryY=0.5;entryDx=0;entryDy=0;strokeWidth=2;exitPerimeter=0;" parent="1" source="U8kBTjzmoHOU7TE96t3S-34" target="U8kBTjzmoHOU7TE96t3S-39" edge="1">
          <mxGeometry relative="1" as="geometry" />
        </mxCell>
        <mxCell id="t3DnAIWewciy8LTK_AGN-7" value="No" style="edgeStyle=orthogonalEdgeStyle;rounded=0;orthogonalLoop=1;jettySize=auto;html=1;exitX=0.25;exitY=1;exitDx=0;exitDy=0;entryX=0.25;entryY=0;entryDx=0;entryDy=0;strokeWidth=2;" parent="1" source="U8kBTjzmoHOU7TE96t3S-34" target="t3DnAIWewciy8LTK_AGN-5" edge="1">
          <mxGeometry relative="1" as="geometry" />
        </mxCell>
        <mxCell id="U8kBTjzmoHOU7TE96t3S-34" value="&lt;span&gt;If Laptop Required&lt;br&gt;&lt;/span&gt;" style="rounded=0;whiteSpace=wrap;html=1;fillColor=#fff2cc;strokeColor=#d6b656;" parent="1" vertex="1">
          <mxGeometry x="4" y="2090" width="178" height="40" as="geometry" />
        </mxCell>
        <mxCell id="t3DnAIWewciy8LTK_AGN-1" style="edgeStyle=orthogonalEdgeStyle;rounded=0;orthogonalLoop=1;jettySize=auto;html=1;exitX=1;exitY=0.5;exitDx=0;exitDy=0;strokeWidth=2;" parent="1" source="U8kBTjzmoHOU7TE96t3S-39" target="U8kBTjzmoHOU7TE96t3S-42" edge="1">
          <mxGeometry relative="1" as="geometry" />
        </mxCell>
        <mxCell id="U8kBTjzmoHOU7TE96t3S-39" value="&lt;b&gt;CATALOG TASK&lt;br&gt;&lt;/b&gt;&lt;span&gt;Prepare a &amp;lt;laptop type&amp;gt; for&lt;/span&gt;&amp;nbsp;&amp;lt;user&amp;gt;" style="rounded=0;whiteSpace=wrap;html=1;" parent="1" vertex="1">
          <mxGeometry x="240" y="2123" width="160" height="56" as="geometry" />
        </mxCell>
        <mxCell id="t3DnAIWewciy8LTK_AGN-4" value="Yes" style="edgeStyle=orthogonalEdgeStyle;rounded=0;orthogonalLoop=1;jettySize=auto;html=1;exitX=1;exitY=0.25;exitDx=0;exitDy=0;entryX=0.5;entryY=0;entryDx=0;entryDy=0;strokeWidth=2;" parent="1" source="U8kBTjzmoHOU7TE96t3S-42" target="t3DnAIWewciy8LTK_AGN-2" edge="1">
          <mxGeometry x="-0.6408" relative="1" as="geometry">
            <mxPoint as="offset" />
          </mxGeometry>
        </mxCell>
        <mxCell id="t3DnAIWewciy8LTK_AGN-8" value="No" style="edgeStyle=orthogonalEdgeStyle;rounded=0;orthogonalLoop=1;jettySize=auto;html=1;exitX=0.5;exitY=1;exitDx=0;exitDy=0;entryX=1;entryY=0.25;entryDx=0;entryDy=0;strokeWidth=2;" parent="1" source="U8kBTjzmoHOU7TE96t3S-42" target="t3DnAIWewciy8LTK_AGN-5" edge="1">
          <mxGeometry x="-0.7493" relative="1" as="geometry">
            <mxPoint as="offset" />
          </mxGeometry>
        </mxCell>
        <mxCell id="U8kBTjzmoHOU7TE96t3S-42" value="&lt;span&gt;Employee type IS &quot;Internal&quot; or IS &quot;Freelancer&quot; &lt;/span&gt;&lt;span&gt;or IS &quot;internal Altogee&quot; or IS &quot;internal Cloudfuel&quot;&lt;/span&gt;" style="rounded=0;whiteSpace=wrap;html=1;fillColor=#fff2cc;strokeColor=#d6b656;" parent="1" vertex="1">
          <mxGeometry x="436.5" y="2116" width="178" height="70" as="geometry" />
        </mxCell>
        <mxCell id="t3DnAIWewciy8LTK_AGN-9" style="edgeStyle=orthogonalEdgeStyle;rounded=0;orthogonalLoop=1;jettySize=auto;html=1;exitX=0.5;exitY=1;exitDx=0;exitDy=0;entryX=1;entryY=0.75;entryDx=0;entryDy=0;strokeWidth=2;" parent="1" source="t3DnAIWewciy8LTK_AGN-2" target="t3DnAIWewciy8LTK_AGN-5" edge="1">
          <mxGeometry relative="1" as="geometry" />
        </mxCell>
        <mxCell id="t3DnAIWewciy8LTK_AGN-2" value="&lt;b&gt;CATALOG TASK&lt;br&gt;&lt;/b&gt;&lt;span&gt;Prepare backpack for&lt;/span&gt;&amp;nbsp;&amp;lt;user&amp;gt;" style="rounded=0;whiteSpace=wrap;html=1;" parent="1" vertex="1">
          <mxGeometry x="650" y="2160" width="160" height="56" as="geometry" />
        </mxCell>
        <mxCell id="t3DnAIWewciy8LTK_AGN-11" value="Yes" style="edgeStyle=orthogonalEdgeStyle;rounded=0;orthogonalLoop=1;jettySize=auto;html=1;exitX=0.75;exitY=1;exitDx=0;exitDy=0;entryX=0;entryY=0.5;entryDx=0;entryDy=0;strokeWidth=2;" parent="1" source="t3DnAIWewciy8LTK_AGN-5" target="t3DnAIWewciy8LTK_AGN-10" edge="1">
          <mxGeometry relative="1" as="geometry" />
        </mxCell>
        <mxCell id="t3DnAIWewciy8LTK_AGN-19" value="No" style="edgeStyle=orthogonalEdgeStyle;rounded=0;orthogonalLoop=1;jettySize=auto;html=1;exitX=0.25;exitY=1;exitDx=0;exitDy=0;entryX=0.25;entryY=0;entryDx=0;entryDy=0;strokeWidth=2;" parent="1" source="t3DnAIWewciy8LTK_AGN-5" target="t3DnAIWewciy8LTK_AGN-17" edge="1">
          <mxGeometry relative="1" as="geometry" />
        </mxCell>
        <mxCell id="t3DnAIWewciy8LTK_AGN-5" value="&lt;span&gt;Employee type IS &quot;Freelancer&quot; or IS&amp;nbsp;&lt;/span&gt;Cronos Medeworker - Lange Termijn&quot;&lt;span&gt;&lt;br&gt;and NOT Laptop Required&lt;br&gt;&lt;/span&gt;" style="rounded=0;whiteSpace=wrap;html=1;fillColor=#fff2cc;strokeColor=#d6b656;" parent="1" vertex="1">
          <mxGeometry x="4" y="2200" width="178" height="70" as="geometry" />
        </mxCell>
        <mxCell id="t3DnAIWewciy8LTK_AGN-18" style="edgeStyle=orthogonalEdgeStyle;rounded=0;orthogonalLoop=1;jettySize=auto;html=1;exitX=0.5;exitY=1;exitDx=0;exitDy=0;entryX=0.648;entryY=0.025;entryDx=0;entryDy=0;entryPerimeter=0;strokeWidth=2;" parent="1" source="t3DnAIWewciy8LTK_AGN-10" target="t3DnAIWewciy8LTK_AGN-17" edge="1">
          <mxGeometry relative="1" as="geometry">
            <Array as="points">
              <mxPoint x="312" y="2350" />
              <mxPoint x="120" y="2350" />
            </Array>
          </mxGeometry>
        </mxCell>
        <mxCell id="t3DnAIWewciy8LTK_AGN-10" value="&lt;b&gt;CATALOG TASK&lt;br&gt;&lt;/b&gt;&lt;span&gt;Register the laptop&lt;/span&gt;&lt;span&gt; (personal device) of &lt;/span&gt;&amp;lt;user&amp;gt; in Intune" style="rounded=0;whiteSpace=wrap;html=1;" parent="1" vertex="1">
          <mxGeometry x="240" y="2265" width="160" height="56" as="geometry" />
        </mxCell>
        <mxCell id="t3DnAIWewciy8LTK_AGN-25" style="edgeStyle=orthogonalEdgeStyle;rounded=0;orthogonalLoop=1;jettySize=auto;html=1;exitX=1;exitY=0.5;exitDx=0;exitDy=0;entryX=0;entryY=0.5;entryDx=0;entryDy=0;strokeWidth=2;" parent="1" source="t3DnAIWewciy8LTK_AGN-17" target="t3DnAIWewciy8LTK_AGN-24" edge="1">
          <mxGeometry relative="1" as="geometry" />
        </mxCell>
        <mxCell id="t3DnAIWewciy8LTK_AGN-17" value="&lt;b&gt;CATALOG TASK&lt;br&gt;&lt;/b&gt;&lt;span&gt;Provide ISO documentation to&lt;/span&gt;&amp;nbsp;&amp;lt;user&amp;gt;" style="rounded=0;whiteSpace=wrap;html=1;" parent="1" vertex="1">
          <mxGeometry x="4" y="2370" width="179" height="60" as="geometry" />
        </mxCell>
        <mxCell id="t3DnAIWewciy8LTK_AGN-28" style="edgeStyle=orthogonalEdgeStyle;rounded=0;orthogonalLoop=1;jettySize=auto;html=1;exitX=1;exitY=0.5;exitDx=0;exitDy=0;entryX=0.006;entryY=0.385;entryDx=0;entryDy=0;entryPerimeter=0;strokeWidth=2;" parent="1" source="t3DnAIWewciy8LTK_AGN-24" target="t3DnAIWewciy8LTK_AGN-26" edge="1">
          <mxGeometry relative="1" as="geometry" />
        </mxCell>
        <mxCell id="t3DnAIWewciy8LTK_AGN-24" value="&lt;b&gt;CATALOG TASK&lt;br&gt;&lt;/b&gt;&lt;span&gt;Add&lt;/span&gt;&amp;nbsp;&amp;lt;user&amp;gt;&amp;nbsp;&lt;span&gt;to the Cloud Champion Platform&lt;/span&gt;" style="rounded=0;whiteSpace=wrap;html=1;" parent="1" vertex="1">
          <mxGeometry x="240" y="2370" width="160" height="60" as="geometry" />
        </mxCell>
        <mxCell id="t3DnAIWewciy8LTK_AGN-30" value="Yes" style="edgeStyle=orthogonalEdgeStyle;rounded=0;orthogonalLoop=1;jettySize=auto;html=1;exitX=1;exitY=0.25;exitDx=0;exitDy=0;entryX=0.5;entryY=0;entryDx=0;entryDy=0;strokeWidth=2;" parent="1" source="t3DnAIWewciy8LTK_AGN-26" target="t3DnAIWewciy8LTK_AGN-29" edge="1">
          <mxGeometry relative="1" as="geometry" />
        </mxCell>
        <mxCell id="t3DnAIWewciy8LTK_AGN-35" value="No" style="edgeStyle=orthogonalEdgeStyle;rounded=0;orthogonalLoop=1;jettySize=auto;html=1;exitX=0;exitY=0.75;exitDx=0;exitDy=0;entryX=0.25;entryY=0;entryDx=0;entryDy=0;strokeWidth=2;" parent="1" source="t3DnAIWewciy8LTK_AGN-26" target="t3DnAIWewciy8LTK_AGN-32" edge="1">
          <mxGeometry x="-0.8109" relative="1" as="geometry">
            <mxPoint as="offset" />
          </mxGeometry>
        </mxCell>
        <mxCell id="t3DnAIWewciy8LTK_AGN-26" value="&lt;span&gt;Employee type NOT &quot;Cronos Medeworker - Korte Termijn&quot; and NOT&lt;/span&gt;&amp;nbsp;&quot;Cronos Medeworker - Lange Termijn&quot;&amp;nbsp;&lt;span&gt;and NOT &quot;Externe Medeworker - Contractor Plus&quot;&amp;nbsp;&lt;/span&gt;and NOT &quot;internal Altogee&quot; and NOT &quot;internal Cloudfuel&quot;" style="rounded=0;whiteSpace=wrap;html=1;fillColor=#fff2cc;strokeColor=#d6b656;" parent="1" vertex="1">
          <mxGeometry x="440" y="2350" width="180" height="130" as="geometry" />
        </mxCell>
        <mxCell id="t3DnAIWewciy8LTK_AGN-36" style="edgeStyle=orthogonalEdgeStyle;rounded=0;orthogonalLoop=1;jettySize=auto;html=1;exitX=0.5;exitY=1;exitDx=0;exitDy=0;entryX=1;entryY=0.25;entryDx=0;entryDy=0;strokeWidth=2;" parent="1" source="t3DnAIWewciy8LTK_AGN-29" target="t3DnAIWewciy8LTK_AGN-32" edge="1">
          <mxGeometry relative="1" as="geometry">
            <Array as="points">
              <mxPoint x="730" y="2503" />
              <mxPoint x="417" y="2503" />
            </Array>
          </mxGeometry>
        </mxCell>
        <mxCell id="t3DnAIWewciy8LTK_AGN-29" value="&lt;b&gt;CATALOG TASK&lt;br&gt;&lt;/b&gt;Create a Cronos All Sites badge for &amp;lt;user&amp;gt;" style="rounded=0;whiteSpace=wrap;html=1;" parent="1" vertex="1">
          <mxGeometry x="650" y="2420" width="160" height="60" as="geometry" />
        </mxCell>
        <mxCell id="t3DnAIWewciy8LTK_AGN-39" style="edgeStyle=orthogonalEdgeStyle;rounded=0;orthogonalLoop=1;jettySize=auto;html=1;exitX=0.25;exitY=1;exitDx=0;exitDy=0;entryX=0.25;entryY=0;entryDx=0;entryDy=0;strokeWidth=2;" parent="1" source="t3DnAIWewciy8LTK_AGN-32" target="t3DnAIWewciy8LTK_AGN-37" edge="1">
          <mxGeometry relative="1" as="geometry" />
        </mxCell>
        <mxCell id="t3DnAIWewciy8LTK_AGN-32" value="Send email to the new employee&#39;s manager to organize a welcome meeting&lt;br&gt;(Subject:&amp;nbsp;&lt;i&gt;New employee&amp;nbsp;&amp;lt;user&amp;gt; will join Arxus on &amp;lt;start date&amp;gt;&lt;/i&gt;)&lt;span&gt;&lt;br&gt;&lt;/span&gt;" style="rounded=0;whiteSpace=wrap;html=1;" parent="1" vertex="1">
          <mxGeometry x="5" y="2480" width="178" height="90" as="geometry" />
        </mxCell>
        <mxCell id="t3DnAIWewciy8LTK_AGN-42" style="edgeStyle=orthogonalEdgeStyle;rounded=0;orthogonalLoop=1;jettySize=auto;html=1;exitX=1;exitY=0.5;exitDx=0;exitDy=0;entryX=0;entryY=0.5;entryDx=0;entryDy=0;strokeWidth=2;" parent="1" source="t3DnAIWewciy8LTK_AGN-37" target="t3DnAIWewciy8LTK_AGN-40" edge="1">
          <mxGeometry relative="1" as="geometry" />
        </mxCell>
        <mxCell id="t3DnAIWewciy8LTK_AGN-37" value="Send email to Rick de Greef to schedule a meeting to explain time tracking&lt;br&gt;(Subject:&amp;nbsp;&lt;i&gt;Schedule a meeting with&amp;nbsp;&amp;lt;user&amp;gt;&amp;nbsp;to explain time tracking procedure&lt;/i&gt;)&lt;span&gt;&lt;br&gt;&lt;/span&gt;" style="rounded=0;whiteSpace=wrap;html=1;" parent="1" vertex="1">
          <mxGeometry x="5" y="2610" width="178" height="90" as="geometry" />
        </mxCell>
        <mxCell id="t3DnAIWewciy8LTK_AGN-44" value="Yes" style="edgeStyle=orthogonalEdgeStyle;rounded=0;orthogonalLoop=1;jettySize=auto;html=1;exitX=1;exitY=0.5;exitDx=0;exitDy=0;strokeWidth=2;" parent="1" source="t3DnAIWewciy8LTK_AGN-40" target="t3DnAIWewciy8LTK_AGN-43" edge="1">
          <mxGeometry relative="1" as="geometry" />
        </mxCell>
        <mxCell id="t3DnAIWewciy8LTK_AGN-47" value="No" style="edgeStyle=orthogonalEdgeStyle;rounded=0;orthogonalLoop=1;jettySize=auto;html=1;exitX=0.25;exitY=1;exitDx=0;exitDy=0;entryX=0.25;entryY=0;entryDx=0;entryDy=0;strokeWidth=2;" parent="1" source="t3DnAIWewciy8LTK_AGN-40" target="t3DnAIWewciy8LTK_AGN-46" edge="1">
          <mxGeometry relative="1" as="geometry" />
        </mxCell>
        <mxCell id="t3DnAIWewciy8LTK_AGN-40" value="&lt;span&gt;Employee type IS &quot;Internal&quot; or IS &quot;Freelancer&quot; &lt;/span&gt;&lt;span&gt;or IS &quot;internal Altogee&quot; or IS &quot;internal Cloudfuel&quot;&lt;/span&gt;" style="rounded=0;whiteSpace=wrap;html=1;fillColor=#fff2cc;strokeColor=#d6b656;" parent="1" vertex="1">
          <mxGeometry x="240" y="2530" width="178" height="70" as="geometry" />
        </mxCell>
        <mxCell id="t3DnAIWewciy8LTK_AGN-48" style="edgeStyle=orthogonalEdgeStyle;rounded=0;orthogonalLoop=1;jettySize=auto;html=1;exitX=0.5;exitY=1;exitDx=0;exitDy=0;entryX=0.75;entryY=0;entryDx=0;entryDy=0;strokeWidth=2;" parent="1" source="t3DnAIWewciy8LTK_AGN-43" target="t3DnAIWewciy8LTK_AGN-46" edge="1">
          <mxGeometry relative="1" as="geometry" />
        </mxCell>
        <mxCell id="t3DnAIWewciy8LTK_AGN-43" value="&lt;b&gt;CATALOG TASK&lt;br&gt;&lt;/b&gt;&lt;span&gt;Make sure that diplomas and certificates are in Cronos Central for&amp;nbsp;&lt;/span&gt;&amp;lt;user&amp;gt;" style="rounded=0;whiteSpace=wrap;html=1;" parent="1" vertex="1">
          <mxGeometry x="490" y="2530" width="160" height="70" as="geometry" />
        </mxCell>
        <mxCell id="t3DnAIWewciy8LTK_AGN-53" value="Yes" style="edgeStyle=orthogonalEdgeStyle;rounded=0;orthogonalLoop=1;jettySize=auto;html=1;exitX=1;exitY=0.5;exitDx=0;exitDy=0;entryX=0.5;entryY=0;entryDx=0;entryDy=0;strokeWidth=2;" parent="1" source="t3DnAIWewciy8LTK_AGN-46" target="t3DnAIWewciy8LTK_AGN-52" edge="1">
          <mxGeometry x="-0.6279" relative="1" as="geometry">
            <mxPoint as="offset" />
          </mxGeometry>
        </mxCell>
        <mxCell id="t3DnAIWewciy8LTK_AGN-55" value="No" style="edgeStyle=orthogonalEdgeStyle;rounded=0;orthogonalLoop=1;jettySize=auto;html=1;exitX=0.5;exitY=1;exitDx=0;exitDy=0;entryX=0;entryY=0.5;entryDx=0;entryDy=0;strokeWidth=2;" parent="1" source="t3DnAIWewciy8LTK_AGN-46" target="t3DnAIWewciy8LTK_AGN-51" edge="1">
          <mxGeometry x="-0.8643" relative="1" as="geometry">
            <mxPoint as="offset" />
          </mxGeometry>
        </mxCell>
        <mxCell id="t3DnAIWewciy8LTK_AGN-46" value="Order Mobile is true" style="rounded=0;whiteSpace=wrap;html=1;fillColor=#fff2cc;strokeColor=#d6b656;" parent="1" vertex="1">
          <mxGeometry x="240" y="2650" width="178" height="40" as="geometry" />
        </mxCell>
        <mxCell id="t3DnAIWewciy8LTK_AGN-51" value="END" style="ellipse;whiteSpace=wrap;html=1;fontStyle=1;fillColor=#FF3333;" parent="1" vertex="1">
          <mxGeometry x="691" y="2750" width="60" height="40" as="geometry" />
        </mxCell>
        <mxCell id="t3DnAIWewciy8LTK_AGN-54" style="edgeStyle=orthogonalEdgeStyle;rounded=0;orthogonalLoop=1;jettySize=auto;html=1;exitX=1;exitY=0.5;exitDx=0;exitDy=0;entryX=0.5;entryY=0;entryDx=0;entryDy=0;strokeWidth=2;" parent="1" source="t3DnAIWewciy8LTK_AGN-52" target="t3DnAIWewciy8LTK_AGN-51" edge="1">
          <mxGeometry relative="1" as="geometry" />
        </mxCell>
        <mxCell id="t3DnAIWewciy8LTK_AGN-52" value="&lt;span&gt;Submit &quot;Mobile Phone&quot; Catalog Request for user&lt;/span&gt;" style="rounded=0;whiteSpace=wrap;html=1;" parent="1" vertex="1">
          <mxGeometry x="480" y="2700" width="160" height="50" as="geometry" />
        </mxCell>
      </root>
    </mxGraphModel>
  </diagram>
</mxfile>
